<?xml version="1.0" encoding="UTF-8"?>
<svg width="120px" height="120px" viewBox="0 0 120 120" version="1.1" xmlns="http://www.w3.org/2000/svg" xmlns:xlink="http://www.w3.org/1999/xlink">
    <title>SVG/bw_dark_large_mewconnect</title>
    <g id="Symbols" stroke="none" stroke-width="1" fill="none" fill-rule="evenodd">
        <g id="Black-&amp;-White/Dark-backgrouds/Big" fill="#FFFFFF">
            <path d="M60.0000001,61.7755102 C73.5653913,61.7755102 84.5612245,72.7718383 84.5612245,86.3367347 L84.5607489,86.3682379 C81.5976468,85.5107654 78.5176584,86.1591637 76.2051371,87.8912631 C76.2538601,87.2808845 76.2750676,86.6634334 76.2755102,86.0455963 C76.2755102,77.2902993 68.7816918,70.0612401 60.0129954,70.0612401 C57.7312095,70.0580392 55.4757314,70.5477139 53.4013042,71.4966948 L53.4013042,71.4966948 L57.3428871,78.178409 C58.2016555,77.8832709 59.1036611,77.7330112 60.0118738,77.7337882 C64.0167462,77.7337882 68.2634933,81.0876233 68.6726319,85.2133412 L68.6726319,85.2133412 L57.2807288,85.2629897 L73.1103199,91.9593799 L73.016756,92.2136986 L71.0967368,97.5992907 C69.8852986,100.997336 70.8336255,104.626349 73.2313847,107.031853 L72.9375893,107.218007 C69.1805083,109.550836 64.7475064,110.897959 60.0000001,110.897959 C55.1198086,110.897959 50.5719471,109.474484 46.7489896,107.020109 C48.9469723,104.841746 49.9361068,101.632873 49.1717303,98.5108105 C52.0832083,101.059922 55.9104989,102.612232 60.0113034,102.612232 C62.027372,102.614768 64.0253801,102.232898 65.8979792,101.487116 L65.8979792,101.487116 L61.9207874,94.7438972 C59.3833685,95.3372142 56.7133859,94.7490194 54.6615827,93.1447088 C52.6097893,91.540389 51.3977851,89.0932337 51.3663724,86.4913393 L51.3663724,86.4913393 L51.3601556,86.3937305 C51.3555728,86.2519119 51.3608614,86.1099494 51.3759732,85.9688598 C51.41018,85.2568603 51.5333847,84.5519302 51.7427253,83.8704527 C51.7749405,83.7265718 51.8037621,83.598489 51.8263669,83.5008802 L51.8263669,83.5008802 L44.8298339,80.5250778 C44.1161014,82.3278192 43.7244898,84.70101 43.7244898,86.757097 C43.7244898,87.143899 43.7391561,87.5274628 43.7679487,87.9073198 C41.4569291,86.1991945 38.3859298,85.5749369 35.439637,86.4561419 C35.43887,86.4162275 35.4387755,86.3764921 35.4387755,86.3367347 C35.4387755,72.7720346 46.4349693,61.7755102 60.0000001,61.7755102 Z M43.9239203,91.4151789 L38.6120187,93.2047607 L38.4992747,93.2491778 C37.9529614,93.49712 37.6724255,94.1234922 37.8679998,94.7043166 C38.0766665,95.3238439 38.7480365,95.6569407 39.3675728,95.4483002 L39.3675728,95.4483002 L44.9463199,93.5683799 L45.9823199,96.4763799 L40.8563395,98.2785007 L40.7441875,98.3243921 C40.201172,98.5794758 39.9288727,99.2094723 40.1320485,99.7876811 C40.3488169,100.404421 41.0244964,100.728687 41.641244,100.511941 L41.641244,100.511941 L46.7717567,98.708698 C47.8096871,102.104963 45.9584049,105.742374 42.5151943,106.936218 L42.4284732,106.965669 C38.7976697,108.174919 34.8524993,106.2806 33.5845904,102.724157 L31.6645712,97.3385645 C30.4248665,93.8612328 32.2822876,90.0470389 35.8244546,88.8188845 L35.9111758,88.7894334 C38.9438927,87.7793777 42.1959383,88.9346299 43.9239203,91.4151789 Z M76.2454699,91.3811989 C77.9693766,88.9739514 81.1571123,87.8615555 84.1316462,88.8522319 L84.1316462,88.8522319 L84.2179831,88.8815511 C87.7254915,90.0976885 89.5643881,93.8738427 88.3371196,97.3162915 L88.3371196,97.3162915 L86.4171004,102.701884 C85.161368,106.224173 81.2533747,108.10064 77.6570364,106.90287 L77.6570364,106.90287 L77.5706995,106.873551 C74.1836394,105.699176 72.3525581,102.137588 73.33592,98.7945164 L78.4009309,100.574516 C79.0522376,100.803407 79.7657785,100.460971 79.9946934,99.8096724 C80.2092541,99.199064 79.9216966,98.5337659 79.3482535,98.2643888 L79.2298171,98.2159258 L74.1653199,96.4363799 L75.1573199,93.6523799 L80.6754244,95.511158 C81.3296761,95.7314896 82.0386659,95.3797278 82.2590252,94.7254856 C82.4655584,94.1121151 82.1693028,93.4506444 81.5923772,93.1888089 L81.4733156,93.1419029 Z M37.5484149,71.4639134 L37.3277453,71.8007089 C34.6338959,75.9937126 33.0714286,80.9827665 33.0714286,86.3367347 C33.0714286,86.7360126 33.0801194,87.1332615 33.0973221,87.5283025 C29.6198499,89.7506188 27.9986943,94.1056027 29.4346949,98.1335384 L31.3547141,103.51913 C31.8336306,104.862476 32.5950058,106.028252 33.5500792,106.974075 C27.4348037,105.965888 23.3736237,102.791188 21.4019113,97.9949929 C19.1695946,92.564877 19.9232904,85.4174313 23.1007969,79.8946223 C26.0950092,74.6903962 29.8306605,71.1888451 34.7434931,69.1933818 C35.6178761,70.014252 36.5535331,70.7717869 37.5484149,71.4639134 Z M96.898092,79.8946224 C100.075598,85.4174313 100.829294,92.564877 98.5969776,97.9949929 L98.4678822,98.2998527 C96.4725065,102.876343 92.5190818,105.921898 86.6392409,106.942728 C87.5644886,106.004168 88.3027618,104.857396 88.7719266,103.541403 L88.7719266,103.541403 L90.6919458,98.1558113 C92.1517559,94.0610909 90.4754169,89.6309868 86.9058602,87.4105259 C86.9215001,87.0554027 86.9285714,86.6968942 86.9285714,86.3367347 C86.9285714,80.8382492 85.2807078,75.7246854 82.4518512,71.4629964 C83.4460692,70.7720636 84.3813759,70.0148576 85.2549981,69.1948068 C90.1682281,71.1888452 93.9038796,74.6903962 96.898092,79.8946224 Z M62.7410433,12.7193799 C69.6997843,12.7193799 74.4641592,13.7567118 78.7162644,16.0333669 C82.7175586,18.1757333 85.8504113,21.3121743 87.9904404,25.3182638 C88.6883572,26.6247493 89.2695667,27.9791973 89.7400248,29.4303445 C89.2034215,29.675159 88.7015359,29.9704091 88.2394465,30.3130711 C87.0717735,31.1789581 86.1873535,32.3268008 85.6566668,33.6669337 C85.1223392,35.0162601 84.9600272,36.5250019 85.1854391,38.0936046 L85.4377802,39.8495999 C85.6630541,41.4172406 86.243556,42.8219825 87.1357604,43.972785 C88.0211478,45.1147943 89.1913133,45.9771768 90.5541269,46.4933594 C90.7943269,46.5843382 91.0394766,46.6641912 91.289042,46.7328371 C91.1769007,53.0615623 90.1330894,57.5278857 87.9904404,61.5388791 C86.2711641,64.7573281 83.9110855,67.4144762 80.9747009,69.4458043 C79.4826945,67.5965822 77.7526167,65.9491475 75.8302301,64.5499557 C77.9356281,63.1146438 79.6321607,61.2242415 80.8590443,58.9400533 C82.3977845,56.0752558 83.1479592,52.7471808 83.1479592,48.6526462 L83.1479592,48.6526462 L83.1479592,47.6738844 L83.1437017,47.1441364 C83.0812359,43.2908277 82.3308827,40.1267184 80.8590443,37.3864774 C79.3456266,34.5688254 77.1175736,32.3503724 74.2885318,30.8439035 C71.4131173,29.3127406 68.0730055,28.5663265 63.9631261,28.5663265 L63.9631261,28.5663265 L56.0368739,28.5663265 L55.505143,28.5705627 C51.6374284,28.6327156 48.4618647,29.3793129 45.711468,30.8439035 C42.8824264,32.3503724 40.6543734,34.5688254 39.1409557,37.3864773 C37.6022155,40.2512748 36.8520408,43.5793498 36.8520408,47.6738844 L36.8520408,47.6738844 L36.8520408,48.6526462 L36.8562983,49.1823942 C36.9187641,53.0357029 37.6691173,56.1998123 39.1409557,58.9400532 C40.3676761,61.2239377 42.0639208,63.1141411 44.1691672,64.5505995 C42.247404,65.9493369 40.5173848,67.596726 39.0267521,69.4452314 C36.0886435,67.414171 33.7287371,64.7571433 32.0095594,61.5388791 C29.8670225,57.5280949 28.8232152,53.0620283 28.7094546,46.7328645 C28.9801693,46.6604533 29.2447146,46.572696 29.5035626,46.4717689 C30.8732311,45.9377227 32.0484762,45.0478712 32.9364048,43.872841 C33.8293111,42.6912237 34.4097026,41.2513614 34.6341838,39.6464467 L34.8152883,38.3516505 C35.0397416,36.7469346 34.8768641,35.2025045 34.3429022,33.8199052 C33.8120127,32.4452623 32.9269595,31.2651329 31.7575249,30.3729494 C31.2936577,30.0190564 30.7897485,29.7139329 30.2515002,29.4602722 C30.7226483,27.9974152 31.3070401,26.6333652 32.0095594,25.3182638 C34.1495887,21.3121742 37.2824415,18.1757333 41.2837356,16.0333669 C45.4892612,13.7816513 50.1922941,12.7435386 57.0228245,12.7193799 L62.7410433,12.7193799 Z M63.9631261,31.0663265 C67.6821447,31.0663265 70.6202868,31.7229125 73.1134905,33.0505475 C75.5067258,34.3249488 77.3771472,36.1873112 78.6566345,38.569436 C79.9890628,41.0501258 80.6479592,43.9732537 80.6479592,47.6738844 L80.6479592,47.6738844 L80.6479592,48.6526462 L80.6438737,49.1524899 C80.5866679,52.6181017 79.9284978,55.3891635 78.6566345,57.7570947 C77.451684,60.0004482 75.7226441,61.7828332 73.5264098,63.0472889 C69.5513591,60.7331186 64.9304793,59.4081633 60.0000001,59.4081633 C55.0692911,59.4081633 50.4481448,60.7333284 46.4732528,63.0469275 C44.2773559,61.7828332 42.548316,60.0004482 41.3433655,57.7570946 C40.0109372,55.2764048 39.3520408,52.3532769 39.3520408,48.6526462 L39.3520408,48.6526462 L39.3520408,47.6738844 L39.3561263,47.1740407 C39.4133321,43.7084289 40.0715022,40.9373672 41.3433655,38.5694359 C42.6228528,36.1873112 44.4932742,34.3249488 46.8865094,33.0505476 C49.3797132,31.7229125 52.3178553,31.0663265 56.0368739,31.0663265 L56.0368739,31.0663265 Z M65.0306122,46.3214286 C64.3402563,46.3214286 63.7806122,46.8810726 63.7806122,47.5714286 C63.7806122,49.4784616 62.1043477,51.0561224 60,51.0561224 C57.8956523,51.0561224 56.2193878,49.4784616 56.2193878,47.5714286 C56.2193878,46.8810726 55.6597437,46.3214286 54.9693878,46.3214286 C54.2790318,46.3214286 53.7193878,46.8810726 53.7193878,47.5714286 C53.7193878,50.894194 56.5476867,53.5561224 60,53.5561224 C63.4523133,53.5561224 66.2806122,50.894194 66.2806122,47.5714286 C66.2806122,46.8810726 65.7209682,46.3214286 65.0306122,46.3214286 Z M46.0918367,43.7244898 C43.4769375,43.7244898 41.3571429,45.8442844 41.3571429,48.4591837 C41.3571429,51.0740829 43.4769375,53.1938776 46.0918367,53.1938776 C48.706736,53.1938776 50.8265306,51.0740829 50.8265306,48.4591837 C50.8265306,45.8442844 48.706736,43.7244898 46.0918367,43.7244898 Z M73.9081633,43.7244898 C71.293264,43.7244898 69.1734694,45.8442844 69.1734694,48.4591837 C69.1734694,51.0740829 71.293264,53.1938776 73.9081633,53.1938776 C76.5230625,53.1938776 78.6428571,51.0740829 78.6428571,48.4591837 C78.6428571,45.8442844 76.5230625,43.7244898 73.9081633,43.7244898 Z M26.8752777,31.101869 L27.1959882,31.1403841 C28.3792009,31.30747 29.4114013,31.7275319 30.241142,32.3605567 C31.0432808,32.9725234 31.6461163,33.7763438 32.0107798,34.7205746 C32.3884261,35.6984223 32.5060541,36.8137896 32.3393901,38.005344 L32.1582856,39.3001401 C31.9916495,40.4914954 31.572756,41.5307059 30.941841,42.3656199 C30.3327876,43.1716039 29.5335378,43.7767658 28.5953834,44.1425608 C27.6246782,44.5210473 26.517635,44.6389183 25.334624,44.4718609 C24.1514116,44.304775 23.1192111,43.884713 22.2894701,43.2516882 C21.4873314,42.6397214 20.884496,41.8359011 20.5198326,40.8916705 C20.1421862,39.9138225 20.0245581,38.7984552 20.1912221,37.6069009 L20.3723266,36.3121048 C20.5389628,35.1207494 20.9578562,34.0815389 21.5887712,33.246625 C22.1978247,32.4406409 22.9970745,31.8354791 23.9352287,31.4696843 C24.8176881,31.1256055 25.8128234,30.9969115 26.8752777,31.101869 Z M96.029745,31.4568039 C96.9630871,31.8103188 97.755533,32.3943313 98.3578663,33.1712458 C98.9796948,33.9733062 99.3922605,34.9716635 99.5570277,36.1182485 L99.8093684,37.8742434 C99.9739974,39.0198665 99.8589966,40.0888366 99.4883337,41.0248638 C99.129758,41.9303676 98.5352443,42.7019559 97.7408242,43.2910578 C96.9150737,43.9033923 95.8845426,44.3107205 94.7005512,44.4734586 C93.5156593,44.6363206 92.4084529,44.5223901 91.4396426,44.1554411 C90.5063007,43.8019263 89.713855,43.2179138 89.1115216,42.4409992 C88.489693,41.6389387 88.0771273,40.6405814 87.9123602,39.4939964 L87.6600191,37.7380013 C87.4953904,36.5923784 87.6103913,35.5234082 87.9810541,34.5873811 C88.3396297,33.6818772 88.9341433,32.910289 89.7285635,32.3211873 C90.5543141,31.7088526 91.584845,31.3015243 92.7688364,31.1387862 C93.9537282,30.9759243 95.0609347,31.0898549 96.029745,31.4568039 Z" id="Combined-Shape"></path>
        </g>
    </g>
</svg>