<?xml version="1.0" encoding="UTF-8"?>
<svg width="120px" height="120px" viewBox="0 0 120 120" version="1.1" xmlns="http://www.w3.org/2000/svg" xmlns:xlink="http://www.w3.org/1999/xlink">
    <title>SVG/bw_light_large_mewconnect</title>
    <g id="Symbols" stroke="none" stroke-width="1" fill="none" fill-rule="evenodd">
        <g id="Black-&amp;-White/Light-backgrounds/Big" fill="#202124">
            <path d="M62.7410433,10.2193878 C70.0883909,10.2193878 75.254798,11.3442443 79.8963112,13.8293956 C84.3332392,16.2050084 87.8227525,19.6985184 90.1955342,24.1403159 C90.9724159,25.5946221 91.616092,27.1001212 92.1338848,28.7078278 L92.4284152,28.662072 L92.7942856,28.6182919 C94.2530127,28.4698065 95.6525316,28.6406113 96.9152606,29.1188856 C98.2780744,29.6350682 99.4482401,30.4974507 100.333627,31.6394599 C101.225832,32.7902624 101.806334,34.1950043 102.031608,35.7626452 L102.031608,35.7626452 L102.283948,37.5186401 C102.509361,39.0872427 102.347049,40.5959846 101.812721,41.9453114 C101.282034,43.2854442 100.397614,44.4332867 99.2299413,45.2991739 C98.0588964,46.1675611 96.6322666,46.7314516 95.0409726,46.9501728 C94.6168902,47.0084624 94.197209,47.0400258 93.7837994,47.0451479 C93.6383912,53.6147266 92.5051766,58.3932256 90.1955342,62.7168271 C89.3143788,64.3663314 88.2792172,65.8850593 87.0987207,67.2643245 C92.0746597,69.5077727 95.9565491,73.2450391 99.065037,78.6478869 C102.611908,84.8126857 103.450386,92.7641444 100.909214,98.9455517 C97.9214837,106.213213 90.8158659,110.279845 80.2311507,109.779216 C80.1608542,109.775892 80.0933851,109.770376 80.0286312,109.762643 C79.0673962,109.777741 78.0879353,109.647084 77.1220412,109.355563 L76.7589619,109.238085 C75.7949939,108.90386 74.9223371,108.428173 74.1565724,107.842928 C70.0955588,110.522049 65.2298361,112.081633 60.0000001,112.081633 C54.7598859,112.081633 49.8853177,110.515913 45.8186247,107.826802 C45.070621,108.391085 44.2206779,108.850474 43.28386,109.175287 L43.28386,109.175287 L42.9229943,109.292055 C42.0527537,109.554707 41.171428,109.685864 40.3018024,109.696408 C40.1455998,109.74245 39.9681614,109.769737 39.7677382,109.779216 C29.1830229,110.279845 22.0774052,106.213213 19.0896747,98.9455517 C16.5485026,92.7641444 17.3869814,84.8126857 20.9338519,78.6478869 C24.0425474,73.244678 27.9247479,69.5072732 32.90093,67.2626059 C31.7202847,65.8843286 30.6854091,64.3659346 29.8044656,62.7168271 C27.4947061,58.3930056 26.3614936,53.6142406 26.2152981,47.044312 C25.811081,47.0382788 25.4000832,47.0059083 24.9850578,46.947301 C23.3853265,46.7213969 21.9502682,46.1373887 20.7730873,45.2392956 C19.6036526,44.3471118 18.7185993,43.1669824 18.1877103,41.7923398 C17.6537482,40.4097404 17.4908706,38.8653103 17.7153239,37.2605944 L17.7153239,37.2605944 L17.8964284,35.9657982 C18.1209096,34.3608835 18.7013011,32.9210211 19.5942074,31.7394038 C20.4821362,30.5643736 21.6573814,29.6745221 23.0270496,29.1404761 C24.4055429,28.6029892 25.9456212,28.4390114 27.5455545,28.664944 C27.6524723,28.6800423 27.7586544,28.6967402 27.8640732,28.7150245 C28.3819791,27.1046663 29.0264823,25.5966843 29.8044657,24.1403159 C32.1772475,19.6985184 35.6667609,16.2050083 40.1036889,13.8293956 C44.694983,11.3711324 49.7971373,10.2449206 57.0184035,10.2193878 L57.0184035,10.2193878 Z M43.9239203,91.4151789 C42.1959383,88.9346299 38.9438927,87.7793777 35.9111758,88.7894334 L35.9111758,88.7894334 L35.8244546,88.8188845 C32.2822876,90.0470389 30.4248665,93.8612328 31.6645712,97.3385645 L31.6645712,97.3385645 L33.5845904,102.724157 C34.8524993,106.2806 38.7976697,108.174919 42.4284732,106.965669 L42.4284732,106.965669 L42.5151943,106.936218 C45.9584049,105.742374 47.8096871,102.104963 46.7717567,98.708698 L41.641244,100.511941 C41.0244964,100.728687 40.3488169,100.404421 40.1320485,99.7876811 C39.9288727,99.2094723 40.201172,98.5794758 40.7441875,98.3243921 L40.8563395,98.2785007 L45.9823742,96.4763878 L44.9463742,93.5683878 L39.3675728,95.4483002 C38.7480365,95.6569407 38.0766665,95.3238439 37.8679998,94.7043166 C37.6724255,94.1234922 37.9529614,93.49712 38.4992747,93.2491778 L38.6120187,93.2047607 Z M76.2454699,91.3811989 L81.4733156,93.1419029 L81.5923772,93.1888089 C82.1693028,93.4506444 82.4655584,94.1121151 82.2590252,94.7254856 C82.0386659,95.3797278 81.3296761,95.7314896 80.6754244,95.511158 L80.6754244,95.511158 L75.1573742,93.6523878 L74.1653742,96.4363878 L79.2298171,98.2159258 L79.3482535,98.2643888 C79.9216966,98.5337659 80.2092541,99.199064 79.9946934,99.8096724 C79.7657785,100.460971 79.0522376,100.803407 78.4009309,100.574516 L78.4009309,100.574516 L73.33592,98.7945164 C72.3525581,102.137588 74.1836394,105.699176 77.5706995,106.873551 L77.6570364,106.90287 C81.2533747,108.10064 85.161368,106.224173 86.4171004,102.701884 L88.3371196,97.3162915 C89.5643881,93.8738427 87.7254915,90.0976885 84.2179831,88.8815511 L84.1316462,88.8522319 C81.1571123,87.8615555 77.9693766,88.9739514 76.2454699,91.3811989 Z M34.7439539,69.193823 L34.4433037,69.3178048 C29.6780498,71.3328968 26.0337241,74.7969155 23.1007969,79.8946223 C19.9232904,85.4174313 19.1695946,92.564877 21.4019113,97.9949929 C23.3736237,102.791188 27.4348037,105.965888 33.5505996,106.975056 C32.5950058,106.028252 31.8336306,104.862476 31.3547141,103.51913 L31.3547141,103.51913 L29.4346949,98.1335384 C27.8469227,93.6798884 29.996681,88.8264052 34.2611086,86.8965001 C34.2570984,86.7104979 34.255102,86.5238493 34.255102,86.3367347 C34.255102,81.0794897 35.8309223,76.190185 38.5360517,72.1155018 C37.1671868,71.2567361 35.9014234,70.2804432 34.7439539,69.193823 Z M85.2553956,69.1933818 L84.905563,69.5164928 C83.8443998,70.4745397 82.6959909,71.3427483 81.4645877,72.1168599 C84.1691538,76.190185 85.744898,81.0794897 85.744898,86.3367347 C85.744898,86.4903162 85.743553,86.6435838 85.7408742,86.7965262 C90.0957781,88.7125018 92.3024965,93.6382683 90.6919458,98.1558113 L88.7719266,103.541403 C88.3027618,104.857396 87.5644886,106.004168 86.6393654,106.942451 C92.5190818,105.921898 96.4725065,102.876343 98.4678822,98.2998527 L98.4678822,98.2998527 L98.5969776,97.9949929 C100.829294,92.564877 100.075598,85.4174313 96.898092,79.8946224 C93.9038796,74.6903962 90.1682281,71.1888452 85.2553956,69.1933818 Z M44.8298339,80.5250778 C44.1161014,82.3278192 43.7244898,84.70101 43.7244898,86.757097 C43.7244898,87.143899 43.7391561,87.5274628 43.7679487,87.9073198 C45.2034364,88.9665009 46.3457529,90.4430869 46.9849348,92.2359716 L46.9849348,92.2359716 L48.9049539,97.6215637 C49.0101186,97.9165471 49.0988868,98.2132846 49.1717303,98.5108105 C52.0832083,101.059922 55.9104989,102.612232 60.0113034,102.612232 C62.027372,102.614768 64.0253801,102.232898 65.8979792,101.487116 L65.8979792,101.487116 L61.9207874,94.7438972 C59.3833685,95.3372142 56.7133859,94.7490194 54.6615827,93.1447088 C52.6097893,91.540389 51.3977851,89.0932337 51.3663724,86.4913393 L51.3663724,86.4913393 L51.3601556,86.3937305 C51.3555728,86.2519119 51.3608614,86.1099494 51.3759732,85.9688598 C51.41018,85.2568603 51.5333847,84.5519302 51.7427253,83.8704527 C51.7749405,83.7265718 51.8037621,83.598489 51.8263669,83.5008802 L51.8263669,83.5008802 Z M60.0129954,70.0612401 C57.7312095,70.0580392 55.4757314,70.5477139 53.4013042,71.4966948 L53.4013042,71.4966948 L57.3428871,78.178409 C58.2016555,77.8832709 59.1036611,77.7330112 60.0118738,77.7337882 C64.0167462,77.7337882 68.2634933,81.0876233 68.6726319,85.2133412 L68.6726319,85.2133412 L57.2807288,85.2629897 L73.1103742,91.9593878 C73.7623969,90.2885638 74.8520353,88.9050298 76.2041315,87.8920164 C76.2538369,87.2815597 76.2750674,86.6637712 76.2755102,86.0455963 C76.2755102,77.2902993 68.7816918,70.0612401 60.0129954,70.0612401 Z M62.7410433,12.7193799 L57.0228245,12.7193799 C50.1922941,12.7435386 45.4892612,13.7816513 41.2837356,16.0333669 C37.2824415,18.1757333 34.1495887,21.3121742 32.0095594,25.3182638 C31.3070401,26.6333652 30.7226483,27.9974152 30.2504373,29.4600429 C30.7897485,29.7139329 31.2936577,30.0190564 31.7575249,30.3729494 C32.9269595,31.2651329 33.8120127,32.4452623 34.3429022,33.8199052 C34.8768641,35.2025045 35.0397416,36.7469346 34.8152883,38.3516505 L34.8152883,38.3516505 L34.6341838,39.6464467 C34.4097026,41.2513614 33.8293111,42.6912237 32.9364048,43.872841 C32.0484762,45.0478712 30.8732311,45.9377227 29.5035626,46.4717689 C29.2447146,46.572696 28.9801693,46.6604533 28.7106,46.7349321 C28.8232152,53.0620283 29.8670225,57.5280949 32.0095594,61.5388791 C33.9193563,65.1139783 36.6198444,67.9964835 40.0226222,70.0979623 C41.5311296,68.2428623 43.2934003,66.6025673 45.2561054,65.2290486 C42.6425536,63.7334539 40.5721903,61.6046982 39.1409557,58.9400532 C37.6691173,56.1998123 36.9187641,53.0357029 36.8562983,49.1823942 L36.8520408,48.6526462 L36.8520408,47.6738844 C36.8520408,43.5793498 37.6022155,40.2512748 39.1409557,37.3864773 C40.6543734,34.5688254 42.8824264,32.3503724 45.711468,30.8439035 C48.4618647,29.3793129 51.6374284,28.6327156 55.505143,28.5705627 L56.0368739,28.5663265 L63.9631261,28.5663265 C68.0730055,28.5663265 71.4131173,29.3127406 74.2885318,30.8439035 C77.1175736,32.3503724 79.3456266,34.5688254 80.8590443,37.3864774 C82.3308827,40.1267184 83.0812359,43.2908277 83.1437017,47.1441364 L83.1479592,47.6738844 L83.1479592,48.6526462 C83.1479592,52.7471808 82.3977845,56.0752558 80.8590443,58.9400533 C79.4278455,61.6046315 77.35755,63.7333473 74.7442699,65.2308167 C76.7068332,66.6025673 78.4690787,68.2428623 79.9782774,70.0973068 C83.380149,67.9964905 86.0806414,65.1139826 87.9904404,61.5388791 C90.1330894,57.5278857 91.1769007,53.0615623 91.2905709,46.7318732 C91.0394766,46.6641912 90.7943269,46.5843382 90.5541269,46.4933594 C89.1913133,45.9771768 88.0211478,45.1147943 87.1357604,43.972785 C86.243556,42.8219825 85.6630541,41.4172406 85.4377802,39.8495999 L85.4377802,39.8495999 L85.1854391,38.0936046 C84.9600272,36.5250019 85.1223392,35.0162601 85.6566668,33.6669337 C86.1873535,32.3268008 87.0717735,31.1789581 88.2394465,30.3130711 C88.7015359,29.9704091 89.2034215,29.675159 89.7395169,29.4298197 C89.2695667,27.9791973 88.6883572,26.6247493 87.9904404,25.3182638 C85.8504113,21.3121743 82.7175586,18.1757333 78.7162644,16.0333669 C74.4641592,13.7567118 69.6997843,12.7193799 62.7410433,12.7193799 L62.7410433,12.7193799 Z M63.9631261,31.0663265 L56.0368739,31.0663265 C52.3178553,31.0663265 49.3797132,31.7229125 46.8865094,33.0505476 C44.4932742,34.3249488 42.6228528,36.1873112 41.3433655,38.5694359 C40.0715022,40.9373672 39.4133321,43.7084289 39.3561263,47.1740407 L39.3520408,47.6738844 L39.3520408,48.6526462 C39.3520408,52.3532769 40.0109372,55.2764048 41.3433655,57.7570946 C42.6228528,60.1392194 44.4932742,62.0015818 46.8865095,63.2759831 C47.1643858,63.4239527 47.4477891,63.5635866 47.7371845,63.6949048 C51.38315,61.7155988 55.5602842,60.5918367 60.0000001,60.5918367 C64.4394823,60.5918367 68.6163226,61.7153926 72.2617891,63.6936194 C72.552211,63.5635865 72.8356143,63.4239526 73.1134906,63.275983 C75.5067258,62.0015818 77.3771472,60.1392194 78.6566345,57.7570947 C79.9284978,55.3891635 80.5866679,52.6181017 80.6438737,49.1524899 L80.6479592,48.6526462 L80.6479592,47.6738844 C80.6479592,43.9732537 79.9890628,41.0501258 78.6566345,38.569436 C77.3771472,36.1873112 75.5067258,34.3249488 73.1134905,33.0505475 C70.6202868,31.7229125 67.6821447,31.0663265 63.9631261,31.0663265 Z M65.0306122,46.3214286 C65.7209682,46.3214286 66.2806122,46.8810726 66.2806122,47.5714286 C66.2806122,50.894194 63.4523133,53.5561224 60,53.5561224 C56.5476867,53.5561224 53.7193878,50.894194 53.7193878,47.5714286 C53.7193878,46.8810726 54.2790318,46.3214286 54.9693878,46.3214286 C55.6597437,46.3214286 56.2193878,46.8810726 56.2193878,47.5714286 C56.2193878,49.4784616 57.8956523,51.0561224 60,51.0561224 C62.1043477,51.0561224 63.7806122,49.4784616 63.7806122,47.5714286 C63.7806122,46.8810726 64.3402563,46.3214286 65.0306122,46.3214286 Z M46.0918367,43.7244898 C48.706736,43.7244898 50.8265306,45.8442844 50.8265306,48.4591837 C50.8265306,51.0740829 48.706736,53.1938776 46.0918367,53.1938776 C43.4769375,53.1938776 41.3571429,51.0740829 41.3571429,48.4591837 C41.3571429,45.8442844 43.4769375,43.7244898 46.0918367,43.7244898 Z M73.9081633,43.7244898 C76.5230625,43.7244898 78.6428571,45.8442844 78.6428571,48.4591837 C78.6428571,51.0740829 76.5230625,53.1938776 73.9081633,53.1938776 C71.293264,53.1938776 69.1734694,51.0740829 69.1734694,48.4591837 C69.1734694,45.8442844 71.293264,43.7244898 73.9081633,43.7244898 Z M26.8752777,31.101869 C25.8128234,30.9969115 24.8176881,31.1256055 23.9352287,31.4696843 C22.9970745,31.8354791 22.1978247,32.4406409 21.5887712,33.246625 C20.9578562,34.0815389 20.5389628,35.1207494 20.3723266,36.3121048 L20.3723266,36.3121048 L20.1912221,37.6069009 C20.0245581,38.7984552 20.1421862,39.9138225 20.5198326,40.8916705 C20.884496,41.8359011 21.4873314,42.6397214 22.2894701,43.2516882 C23.1192111,43.884713 24.1514116,44.304775 25.334624,44.4718609 C26.517635,44.6389183 27.6246782,44.5210473 28.5953834,44.1425608 C29.5335378,43.7767658 30.3327876,43.1716039 30.941841,42.3656199 C31.572756,41.5307059 31.9916495,40.4914954 32.1582856,39.3001401 L32.1582856,39.3001401 L32.3393901,38.005344 C32.5060541,36.8137896 32.3884261,35.6984223 32.0107798,34.7205746 C31.6461163,33.7763438 31.0432808,32.9725234 30.241142,32.3605567 C29.4114013,31.7275319 28.3792009,31.30747 27.1959882,31.1403841 L27.1959882,31.1403841 Z M96.029745,31.4568039 C95.0609347,31.0898549 93.9537282,30.9759243 92.7688364,31.1387862 C91.584845,31.3015243 90.5543141,31.7088526 89.7285635,32.3211873 C88.9341433,32.910289 88.3396297,33.6818772 87.9810541,34.5873811 C87.6103913,35.5234082 87.4953904,36.5923784 87.6600191,37.7380013 L87.6600191,37.7380013 L87.9123602,39.4939964 C88.0771273,40.6405814 88.489693,41.6389387 89.1115216,42.4409992 C89.713855,43.2179138 90.5063007,43.8019263 91.4396426,44.1554411 C92.4084529,44.5223901 93.5156593,44.6363206 94.7005512,44.4734586 C95.8845426,44.3107205 96.9150737,43.9033923 97.7408242,43.2910578 C98.5352443,42.7019559 99.129758,41.9303676 99.4883337,41.0248638 C99.8589966,40.0888366 99.9739974,39.0198665 99.8093684,37.8742434 L99.8093684,37.8742434 L99.5570277,36.1182485 C99.3922605,34.9716635 98.9796948,33.9733062 98.3578663,33.1712458 C97.755533,32.3943313 96.9630871,31.8103188 96.029745,31.4568039 Z" id="Combined-Shape"></path>
        </g>
    </g>
</svg>