<?xml version="1.0" encoding="UTF-8"?>
<svg width="32px" height="32px" viewBox="0 0 32 32" version="1.1" xmlns="http://www.w3.org/2000/svg" xmlns:xlink="http://www.w3.org/1999/xlink">
    <title>SVG/bw_dark_medium_mewconnect</title>
    <g id="Symbols" stroke="none" stroke-width="1" fill="none" fill-rule="evenodd">
        <g id="Black-&amp;-White/Dark-backgrouds/Medium" fill="#FFFFFF" fill-rule="nonzero">
            <path d="M15.9985294,16.1352941 C20.0555695,16.1352941 23.3530919,19.3856031 23.4295261,23.4242168 C22.5661115,23.2258694 21.6864358,23.4177321 21.0003187,23.8984284 C21.0095414,23.7591704 21.0131345,23.6185893 21.0132353,23.4779434 C21.0132353,20.7803174 18.704288,18.552946 16.0025335,18.552946 C15.2994842,18.5519597 14.6045408,18.7028352 13.9653816,18.9952291 L13.9653816,18.9952291 L15.1798368,21.053956 C15.444435,20.96302 15.7223552,20.9167229 16.0021879,20.9169623 C17.2361435,20.9169623 18.544624,21.9503245 18.6706852,23.2215142 L18.6706852,23.2215142 L15.160685,23.2368116 L19.9329694,25.2559969 L19.9009806,25.3398493 L19.3093966,26.9992234 C18.9403423,28.0344089 19.1960159,29.1362809 19.8812041,29.9054034 C18.7518239,30.5998445 17.4218873,31 15.9985294,31 C14.5806444,31 13.2554636,30.6029158 12.1281306,29.9138911 C12.7179802,29.2565999 12.9928382,28.3544169 12.8301885,27.4581441 C13.7030815,28.1604969 14.8153821,28.5823491 16.0020121,28.5823491 C16.6231903,28.5831303 17.2388037,28.4654711 17.815777,28.2356854 L17.815777,28.2356854 L16.5903501,26.1580081 C15.8085369,26.3408171 14.9858789,26.1595863 14.3536905,25.6652764 C13.7215051,25.1709637 13.3480701,24.4169619 13.3383914,23.6152828 L13.3383914,23.6152828 L13.3364759,23.5852082 C13.3350639,23.541512 13.3366934,23.4977714 13.3413495,23.4542998 C13.3518891,23.2349231 13.3898502,23.0177245 13.4543509,22.8077521 C13.4642768,22.7634204 13.4731571,22.7239563 13.480122,22.6938818 L13.480122,22.6938818 L11.3243951,21.7769966 C11.1044844,22.3324457 10.9838235,23.0636581 10.9838235,23.6971664 C10.9838235,23.7581265 10.9850058,23.8188255 10.9873481,23.8792442 C10.3006482,23.4088322 9.42515082,23.2257434 8.56806851,23.4278615 L8.56617647,23.5676471 C8.56617647,19.4628986 11.8936809,16.1352941 15.9985294,16.1352941 Z M11.0073407,25.3227363 L9.58294413,25.8020043 L9.51563196,25.8324405 C9.3689309,25.9176141 9.29726722,26.0968213 9.35339737,26.2638881 C9.41756694,26.4548144 9.62435784,26.5575816 9.8152875,26.4934218 L9.8152875,26.4934218 L11.2879694,25.9979969 L11.6089694,26.8969969 L10.2749987,27.3670053 L10.2081311,27.3984063 C10.06267,27.4856805 9.99359069,27.6658997 10.0521186,27.8321415 C10.1190258,28.0221259 10.3272731,28.1219089 10.5172604,28.0550102 L10.5172604,28.0550102 L11.8373575,27.5916322 C12.0178393,28.4683403 11.5537533,29.3645186 10.7093641,29.7312738 L10.5409658,29.7956044 C9.49256848,30.1447732 8.35284242,29.5975207 7.98702036,28.5714016 L7.39543636,26.9120275 C7.05581496,25.9594004 7.52445896,24.9184719 8.45157442,24.5157851 L8.61997275,24.4514544 C9.54065825,24.1448201 10.5317772,24.5295119 11.0073407,25.3227363 Z M21.0094884,25.3227363 C21.485052,24.5295119 22.4761709,24.1448201 23.3968564,24.4514544 L23.3968564,24.4514544 L23.5652547,24.5157851 C24.4923702,24.9184719 24.9610142,25.9594004 24.6213928,26.9120275 L24.6213928,26.9120275 L24.0298088,28.5714016 C23.6639867,29.5975207 22.5242607,30.1447732 21.4758634,29.7956044 L21.4758634,29.7956044 L21.3074651,29.7312738 C20.4630759,29.3645186 19.9989899,28.4683403 20.1794717,27.5916322 L21.4995687,28.0550102 C21.689556,28.1219089 21.8978033,28.0221259 21.9647106,27.8321415 C22.0232385,27.6658997 21.9541592,27.4856805 21.808698,27.3984063 L21.7418305,27.3670053 L20.4069694,26.8969969 L20.7269694,25.9979969 L22.2015417,26.4934218 C22.3924713,26.5575816 22.5992622,26.4548144 22.6634318,26.2638881 C22.7195619,26.0968213 22.6478983,25.9176141 22.5011972,25.8324405 L22.433885,25.8020043 Z M8.90779047,19.003278 L8.79848608,19.1762304 C8.01670601,20.4552862 7.56617647,21.9588561 7.56617647,23.5676471 C7.56617647,23.667102 7.56789844,23.7661549 7.57131418,23.8647776 C6.49288993,24.5945072 5.99859763,25.9718324 6.45350588,27.2478354 L7.04508988,28.9072095 C7.15026778,29.2022302 7.29762256,29.4706921 7.47813192,29.7082947 C3.80662524,28.7958828 2.77406649,25.0377798 4.72893987,21.6400237 C5.62399409,20.0843342 6.735028,19.030049 8.19256245,18.4197257 C8.41898541,18.6283673 8.6571872,18.8226217 8.90779047,19.003278 Z M27.2677766,21.6400237 L27.3779143,21.8376644 C29.1774999,25.1743842 28.1239567,28.7966524 24.5429442,29.7026353 C24.7217224,29.4661011 24.8674603,29.1997086 24.9717393,28.9072095 L24.9717393,28.9072095 L25.5633233,27.2478354 C26.0208877,25.9643819 25.5181346,24.5784194 24.4271088,23.851208 C24.4293083,23.7574535 24.4308824,23.662734 24.4308824,23.5676471 C24.4308824,21.8851696 23.9381641,20.3177849 23.0891372,19.0019267 C23.3398716,18.8226217 23.5780734,18.6283673 23.8034355,18.420954 C25.2616884,19.030049 26.3727223,20.0843342 27.2677766,21.6400237 Z M16.8430821,0.999996873 C18.969311,0.999996873 20.4188089,1.3155921 21.7110497,2.00748152 C22.9238884,2.65685764 23.8727768,3.60683281 24.5214554,4.82114564 C24.7179295,5.18894088 24.8839969,5.5693667 25.0210817,5.97438672 C24.8822251,6.04394984 24.7524396,6.12373549 24.6310718,6.21373564 C24.2541475,6.4932436 23.9683264,6.86419585 23.7969073,7.2970773 C23.6247544,7.73181137 23.5725703,8.21687973 23.6448153,8.71962057 L23.7225651,9.26066663 C23.7947549,9.76302266 23.9813309,10.2145133 24.2686532,10.5851136 C24.5544575,10.9537558 24.932355,11.2322568 25.3719877,11.3987731 L25.5229761,11.4501159 C25.4803836,13.336722 25.1626769,14.6726191 24.5214554,15.872972 C24.0205303,16.8106933 23.3405811,17.5907823 22.4983055,18.1965405 C22.0826953,17.6928984 21.6091477,17.2388752 21.0882961,16.8439843 C21.6844416,16.4065881 22.1690297,15.8465544 22.5266702,15.1807061 C23.0102556,14.2803759 23.2455882,13.2363462 23.2455882,11.9566673 L23.2455882,11.6550974 C23.2455882,10.3754185 23.0102556,9.33138877 22.5266702,8.43105862 C22.0496181,7.54289223 21.346694,6.84299677 20.4550054,6.3681713 C19.5514911,5.88704847 18.5038895,5.65294118 17.2196224,5.65294118 L14.7774364,5.65294118 C13.4931693,5.65294118 12.4455677,5.88704847 11.5420534,6.36817133 C10.6503648,6.84299677 9.9474407,7.54289223 9.47038864,8.43105859 C8.98680324,9.33138877 8.75147059,10.3754185 8.75147059,11.6550974 L8.75147059,11.9566673 C8.75147059,13.2363462 8.98680324,14.2803759 9.47038861,15.1807061 C9.82802916,15.8465544 10.3126173,16.4065881 10.9085177,16.8453022 C10.3879576,17.2388951 9.91440562,17.6929208 9.4981519,18.196081 C8.65647768,17.5907823 7.97652853,16.8106934 7.47560334,15.872972 C6.83449686,14.6728341 6.51679174,13.3372007 6.47410874,11.4511299 L6.64388724,11.3917206 L6.64388724,11.3917206 C7.08572586,11.2194437 7.4651093,10.9321888 7.75150459,10.5531909 C8.03865787,10.1731899 8.22490413,9.71114149 8.2967274,9.19764521 L8.35252817,8.79870093 C8.42434032,8.28528417 8.37207663,7.78971177 8.20037407,7.34511854 C8.02916285,6.90179786 7.74349992,6.52089512 7.36630652,6.23312719 C7.24386476,6.13971408 7.11284937,6.05690486 6.97429607,5.98516426 C7.11010878,5.57615701 7.27740107,5.19217614 7.47560335,4.82114564 C8.12428206,3.6068328 9.07317044,2.65685763 10.2860091,2.00748151 C11.5640653,1.32318679 12.9947967,1.00737772 15.0816274,0.999996873 L16.8430821,0.999996873 Z M17.2196224,6.65294118 C18.3475452,6.65294118 19.2343589,6.85111724 19.9849889,7.2508289 C20.7023549,7.63282735 21.2622264,8.19028655 21.6457063,8.90424207 C22.0467669,9.65092918 22.2455882,10.5329801 22.2455882,11.6550974 L22.2455882,11.9566673 C22.2455882,13.0787847 22.0467669,13.9608355 21.6457063,14.7075227 C21.2988005,15.3533851 20.8075451,15.8711792 20.1859296,16.2468656 C18.9516648,15.5394375 17.5223145,15.1352941 15.9985294,15.1352941 C14.4747816,15.1352941 13.0454443,15.5394437 11.8118555,16.2463928 L12.0120699,16.3609358 C11.2947039,15.9789374 10.7348324,15.4214782 10.3513525,14.7075226 C9.95029191,13.9608355 9.75147059,13.0787847 9.75147059,11.9566673 L9.75147059,11.6550974 C9.75147059,10.5329801 9.95029191,9.65092918 10.3513526,8.90424203 C10.7348324,8.19028655 11.2947039,7.63282735 12.0120699,7.25082893 C12.7626999,6.85111724 13.6495136,6.65294118 14.7774364,6.65294118 L17.2196224,6.65294118 Z M17.5485294,11.1235294 C17.272387,11.1235294 17.0485294,11.347387 17.0485294,11.6235294 L17.0485294,11.6235294 L17.0415584,11.7340544 C16.9816807,12.2061693 16.5430885,12.5823529 15.9985294,12.5823529 C15.4120812,12.5823529 14.9485294,12.1460689 14.9485294,11.6235294 L14.9485294,11.6235294 L14.9404737,11.5336538 C14.8981378,11.3004046 14.6939893,11.1235294 14.4485294,11.1235294 C14.172387,11.1235294 13.9485294,11.347387 13.9485294,11.6235294 C13.9485294,12.7123619 14.8728949,13.5823529 15.9985294,13.5823529 C17.1241639,13.5823529 18.0485294,12.7123619 18.0485294,11.6235294 C18.0485294,11.347387 17.8246718,11.1235294 17.5485294,11.1235294 Z M11.7132353,10.4382353 C10.9075493,10.4382353 10.2544118,11.0913728 10.2544118,11.8970588 C10.2544118,12.7027448 10.9075493,13.3558824 11.7132353,13.3558824 C12.5189213,13.3558824 13.1720588,12.7027448 13.1720588,11.8970588 C13.1720588,11.0913728 12.5189213,10.4382353 11.7132353,10.4382353 Z M20.2838235,10.4382353 C19.4781375,10.4382353 18.825,11.0913728 18.825,11.8970588 C18.825,12.7027448 19.4781375,13.3558824 20.2838235,13.3558824 C21.0895095,13.3558824 21.7426471,12.7027448 21.7426471,11.8970588 C21.7426471,11.0913728 21.0895095,10.4382353 20.2838235,10.4382353 Z M5.6709304,6.65526351 L5.87510737,6.67463095 C6.22053507,6.72341011 6.52006145,6.84530468 6.75975336,7.02817012 C6.99002848,7.20385133 7.16280427,7.43423045 7.26752513,7.7053863 C7.37670142,7.98807887 7.41086531,8.31202618 7.3621689,8.66017831 L7.30636813,9.0591226 C7.25768285,9.40719512 7.13603582,9.70898276 6.95367907,9.95030246 C6.77883384,10.1816819 6.54984855,10.355061 6.28061557,10.4600374 C6.00026322,10.5693492 5.67906316,10.6035486 5.33371616,10.5547808 C4.98828855,10.5060017 4.68876213,10.3841071 4.44907015,10.2012416 C4.21879505,10.0255604 4.04601926,9.7951813 3.94129848,9.52402554 C3.83212213,9.24133285 3.79795822,8.91738556 3.84665462,8.56923346 L3.90245539,8.17028917 C3.95114067,7.82221662 4.0727877,7.52042899 4.25514443,7.27910931 C4.42998969,7.04772985 4.65897498,6.8743508 4.92820792,6.76937446 C5.15248984,6.68192493 5.40291425,6.64254743 5.6709304,6.65526351 Z M27.0591001,6.76580601 C27.3269442,6.86725529 27.5537538,7.03440827 27.7263365,7.25701254 C27.9055084,7.48811592 28.02491,7.77705276 28.0728971,8.11098654 L28.1506467,8.65203242 C28.1985786,8.98558144 28.1653189,9.29474113 28.0586319,9.56415551 C27.9560572,9.82318532 27.7861986,10.0436358 27.5585754,10.2124297 C27.3200144,10.3893344 27.0206918,10.5076448 26.6746008,10.5552146 C26.3281496,10.6028339 26.0063596,10.569722 25.726194,10.4636058 C25.45835,10.3621565 25.2315404,10.1950036 25.0589576,9.97239923 C24.8797858,9.74129584 24.7603842,9.452359 24.7123971,9.11842523 L24.6346473,8.57737926 C24.5867156,8.24383035 24.6199753,7.93467062 24.7266623,7.66525625 C24.8292369,7.40622641 24.9990954,7.18577596 25.2267186,7.01698211 C25.4652797,6.84007735 25.7646023,6.72176693 26.1106933,6.67419716 C26.4571445,6.62657789 26.7789345,6.65968981 27.0591001,6.76580601 Z" id="Combined-Shape"></path>
        </g>
    </g>
</svg>