<?xml version="1.0" encoding="UTF-8"?>
<svg width="32px" height="32px" viewBox="0 0 32 32" version="1.1" xmlns="http://www.w3.org/2000/svg" xmlns:xlink="http://www.w3.org/1999/xlink">
    <title>SVG/bw_light_medium_mewconnect</title>
    <g id="Symbols" stroke="none" stroke-width="1" fill="none" fill-rule="evenodd">
        <g id="Black-&amp;-White/Light-backgrounds/Medium" fill="#000000" fill-rule="nonzero">
            <path d="M16.8430821,-1.42108547e-14 C19.1247536,-1.42108547e-14 20.7350645,0.350605099 22.1830684,1.12589298 C23.5701606,1.86856765 24.6617133,2.96137048 25.4034929,4.34996645 C25.6310842,4.77601251 25.8220035,5.2160211 25.9781575,5.68298802 L26.1913016,5.66090549 C26.622234,5.63038286 27.0363143,5.68784827 27.4133063,5.83063868 C27.8529391,5.99715505 28.2308367,6.27565602 28.516641,6.64429819 C28.8039632,7.01489843 28.9905393,7.4663891 29.0627291,7.96874522 L29.0627291,7.96874522 L29.1404787,8.50979109 C29.2127239,9.01253192 29.1605397,9.49760033 28.9883868,9.93233458 C28.8169676,10.3652159 28.5311466,10.7361681 28.1542223,11.0156762 C27.7775435,11.2950019 27.3197814,11.4759372 26.8107693,11.5459003 C26.7126382,11.5593883 26.6151899,11.5683963 26.5186552,11.5729548 C26.464572,13.5588488 26.1111956,15.0193469 25.4034929,16.3441512 C25.1524386,16.8141197 24.8613186,17.2502057 24.5322356,17.6503029 C26.0208424,18.3560419 27.1923932,19.5037634 28.1345546,21.1413295 C30.7974032,25.7696141 28.5629139,31.2050148 22.2265955,30.905324 L22.1642992,30.900327 C21.8865588,30.9041271 21.6044322,30.8698784 21.3251174,30.7941497 L21.1252322,30.732613 C20.8064675,30.6220917 20.5188311,30.4633239 20.2678049,30.2675268 C19.0335423,31.0479556 17.5695388,31.5 16,31.5 C14.4346714,31.5 12.9743126,31.0503775 11.7410332,30.2732421 C11.4927108,30.4662368 11.2074333,30.6231069 10.891597,30.732613 L10.891597,30.732613 L10.6917117,30.7941497 C10.4056582,30.8717055 10.1166555,30.9057556 9.83243529,30.8999856 C9.81313537,30.902755 9.79199844,30.9042893 9.770121,30.905324 C3.43380255,31.2050148 1.19931324,25.7696141 3.86216187,21.1413295 C4.80439857,19.5036324 5.97606143,18.3558582 7.4654026,17.6489402 C7.13574016,17.2502057 6.84462019,16.8141197 6.59356583,16.3441512 C5.88574434,15.0191242 5.53236803,13.5583579 5.47690737,11.5724847 C5.38430126,11.5675858 5.28940335,11.5584447 5.19388967,11.5449569 C4.6818545,11.4726504 4.22118495,11.2851774 3.842517,10.9962846 C3.46532356,10.7085166 3.17966061,10.3276138 3.00844952,9.88429325 C2.83674692,9.43970001 2.7844832,8.94412759 2.85629535,8.43071084 L2.85629535,8.43071084 L2.91209612,8.03176655 C2.9839194,7.51827025 3.17016565,7.05622186 3.45731894,6.67622086 C3.74371427,6.29722289 4.12309773,6.00996801 4.56493626,5.8376912 C5.00840388,5.6647792 5.50281796,5.61213709 6.01493389,5.68445493 C6.01594984,5.6845984 6.01696558,5.68474232 6.01798112,5.68488669 C6.17451712,5.21727014 6.36566999,4.77658269 6.59356584,4.34996645 C7.33534557,2.96137046 8.4268982,1.86856764 9.81399042,1.12589297 C11.246354,0.358979212 12.836734,0.00793051216 15.079859,-1.42108547e-14 L15.079859,-1.42108547e-14 Z M11.0079401,25.3237368 C10.5326104,24.5298354 9.54104526,24.1446912 8.61997275,24.4514544 L8.61997275,24.4514544 L8.45157442,24.5157851 C7.52445896,24.9184719 7.05581496,25.9594004 7.39543636,26.9120275 L7.39543636,26.9120275 L7.98702036,28.5714016 C8.35284242,29.5975207 9.49256848,30.1447732 10.5409658,29.7956044 L10.5409658,29.7956044 L10.7093641,29.7312738 C11.5537533,29.3645186 12.0178393,28.4683403 11.8373575,27.5916322 L10.5172604,28.0550102 C10.3272731,28.1219089 10.1190258,28.0221259 10.0521186,27.8321415 C9.99359069,27.6658997 10.06267,27.4856805 10.2081311,27.3984063 L10.2749987,27.3670053 L11.6087119,26.897 L11.2887119,25.998 L9.8152875,26.4934218 C9.62435784,26.5575816 9.41756694,26.4548144 9.35339737,26.2638881 C9.29726722,26.0968213 9.3689309,25.9176141 9.51563196,25.8324405 L9.58294413,25.8020043 Z M21.0094884,25.3227363 L22.433885,25.8020043 L22.5011972,25.8324405 C22.6478983,25.9176141 22.7195619,26.0968213 22.6634318,26.2638881 C22.5992622,26.4548144 22.3924713,26.5575816 22.2015417,26.4934218 L22.2015417,26.4934218 L20.7277119,25.998 L20.4067119,26.897 L21.7418305,27.3670053 L21.808698,27.3984063 C21.9541592,27.4856805 22.0232385,27.6658997 21.9647106,27.8321415 C21.8978033,28.0221259 21.689556,28.1219089 21.4995687,28.0550102 L21.4995687,28.0550102 L20.1794717,27.5916322 C19.9989899,28.4683403 20.4630759,29.3645186 21.3074651,29.7312738 L21.4758634,29.7956044 C22.5242607,30.1447732 23.6639867,29.5975207 24.0298088,28.5714016 L24.6213928,26.9120275 C24.9610142,25.9594004 24.4923702,24.9184719 23.5652547,24.5157851 L23.3968564,24.4514544 C22.4761709,24.1448201 21.485052,24.5295119 21.0094884,25.3227363 Z M8.19360597,18.420938 L8.06427146,18.4749887 C6.66956223,19.0927876 5.59754837,20.1302994 4.72893987,21.6400237 C2.77406649,25.0377798 3.80662524,28.7958828 7.47887189,29.7089306 C7.29762256,29.4706921 7.15026778,29.2022302 7.04508988,28.9072095 L7.04508988,28.9072095 L6.45350588,27.2478354 C5.94170984,25.812264 6.63135966,24.2484444 8.00182498,23.6216647 C8.00030611,23.5816153 8,23.5408434 8,23.5 C8,21.9287301 8.45298462,20.4632555 9.23549197,19.2270526 C8.86306035,18.9861999 8.51525543,18.7169718 8.19360597,18.420938 Z M23.804154,18.4197257 C23.4794382,18.7187166 23.1336876,18.9862402 22.7633547,19.2260237 C23.5465448,20.4616548 24,21.9278647 24,23.5 L23.999065,23.614431 C25.3801144,24.2363404 26.0770997,25.8067092 25.5633233,27.2478354 L24.9717393,28.9072095 C24.8674603,29.1997086 24.7217224,29.4661011 24.5433184,29.7021956 C28.0531249,28.8145726 29.1348333,25.3166171 27.4813544,22.0359754 L27.3779143,21.8376644 L27.2677766,21.6400237 C26.3727223,20.0843342 25.2616884,19.030049 23.804154,18.4197257 Z M11.3243951,21.7769966 C11.1044844,22.3324457 10.9838235,23.0636581 10.9838235,23.6971664 C10.9838235,23.7581265 10.9850058,23.8188255 10.9873481,23.8792442 C11.4929265,24.2238567 11.8962865,24.7239846 12.1158486,25.3398493 L12.1158486,25.3398493 L12.7074326,26.9992234 C12.7616071,27.1511811 12.8023199,27.3045759 12.8301885,27.4581441 C13.7030815,28.1604969 14.8153821,28.5823491 16.0020121,28.5823491 C16.6231903,28.5831303 17.2388037,28.4654711 17.815777,28.2356854 L17.815777,28.2356854 L16.5903501,26.1580081 C15.8085369,26.3408171 14.9858789,26.1595863 14.3536905,25.6652764 C13.7215051,25.1709637 13.3480701,24.4169619 13.3383914,23.6152828 L13.3383914,23.6152828 L13.3364759,23.5852082 C13.3350639,23.541512 13.3366934,23.4977714 13.3413495,23.4542998 C13.3518891,23.2349231 13.3898502,23.0177245 13.4543509,22.8077521 C13.4642768,22.7634204 13.4731571,22.7239563 13.480122,22.6938818 L13.480122,22.6938818 Z M16.0025335,18.552946 C15.2994842,18.5519597 14.6045408,18.7028352 13.9653816,18.9952291 L13.9653816,18.9952291 L15.1798368,21.053956 C15.444435,20.96302 15.7223552,20.9167229 16.0021879,20.9169623 C17.2361435,20.9169623 18.544624,21.9503245 18.6706852,23.2215142 L18.6706852,23.2215142 L15.160685,23.2368116 L19.9327119,25.256 L19.9641907,25.1775358 C20.1886683,24.6471285 20.5534382,24.2115146 21.0003187,23.8984284 C21.0095414,23.7591704 21.0131345,23.6185893 21.0132353,23.4779434 C21.0132353,20.7803174 18.704288,18.552946 16.0025335,18.552946 Z M16.8430821,0.999996873 L15.0816274,0.999996873 C12.9947967,1.00737772 11.5640653,1.32318679 10.2860091,2.00748151 C9.07317044,2.65685763 8.12428206,3.6068328 7.47560335,4.82114564 C7.27740107,5.19217614 7.11010878,5.57615701 6.97229693,5.98534915 C7.11284937,6.05690486 7.24386476,6.13971408 7.36630652,6.23312719 C7.74349992,6.52089512 8.02916285,6.90179786 8.20037407,7.34511854 C8.37207663,7.78971177 8.42434032,8.28528417 8.35252817,8.79870093 L8.35252817,8.79870093 L8.2967274,9.19764521 C8.22490413,9.71114149 8.03865787,10.1731899 7.75150459,10.5531909 C7.4651093,10.9321888 7.08572586,11.2194437 6.64388724,11.3917206 C6.58841275,11.4133506 6.53214105,11.4330986 6.47513721,11.4509554 C6.51679174,13.3372007 6.83449686,14.6728341 7.47560334,15.872972 C8.03930476,16.9282091 8.82971252,17.783829 9.82303199,18.4160358 C10.2396998,17.9103958 10.715795,17.458054 11.2412934,17.0685873 C10.4915101,16.6051216 9.89252006,15.9666223 9.47038861,15.1807061 C8.98680324,14.2803759 8.75147059,13.2363462 8.75147059,11.9566673 L8.75147059,11.9566673 L8.75147059,11.6550974 C8.75147059,10.3754185 8.98680324,9.33138877 9.47038864,8.43105859 C9.9474407,7.54289223 10.6503648,6.84299677 11.5420534,6.36817133 C12.4455677,5.88704847 13.4931693,5.65294118 14.7774364,5.65294118 L14.7774364,5.65294118 L17.2196224,5.65294118 C18.5038895,5.65294118 19.5514911,5.88704847 20.4550054,6.3681713 C21.346694,6.84299677 22.0496181,7.54289223 22.5266702,8.43105862 C23.0102556,9.33138877 23.2455882,10.3754185 23.2455882,11.6550974 L23.2455882,11.6550974 L23.2455882,11.9566673 C23.2455882,13.2363462 23.0102556,14.2803759 22.5266702,15.1807061 C22.1049175,15.9659171 21.5066234,16.6039757 20.7574292,17.0694539 C21.2826905,17.45662 21.7591786,17.909124 22.1750773,18.4134533 C23.1683983,17.78269 23.9581292,16.9275068 24.5214554,15.872972 C25.1626769,14.6726191 25.4803836,13.336722 25.5229761,11.4501159 L25.3719877,11.3987731 C24.932355,11.2322568 24.5544575,10.9537558 24.2686532,10.5851136 C23.9813309,10.2145133 23.7947549,9.76302266 23.7225651,9.26066663 L23.7225651,9.26066663 L23.6448153,8.71962057 C23.5725703,8.21687973 23.6247544,7.73181137 23.7969073,7.2970773 C23.9683264,6.86419585 24.2541475,6.4932436 24.6310718,6.21373564 C24.7524396,6.12373549 24.8822251,6.04394984 25.0194304,5.97479956 C24.8839969,5.5693667 24.7179295,5.18894088 24.5214554,4.82114564 C23.8727768,3.60683281 22.9238884,2.65685764 21.7110497,2.00748152 C20.4188089,1.3155921 18.969311,0.999996873 16.8430821,0.999996873 L16.8430821,0.999996873 Z M17.2196224,6.65294118 L14.7774364,6.65294118 C13.6495136,6.65294118 12.7626999,6.85111724 12.0120699,7.25082893 C11.2947039,7.63282735 10.7348324,8.19028655 10.3513526,8.90424203 C9.95029191,9.65092918 9.75147059,10.5329801 9.75147059,11.6550974 L9.75147059,11.6550974 L9.75147059,11.9566673 C9.75147059,13.0787847 9.95029191,13.9608355 10.3513525,14.7075226 C10.7348324,15.4214782 11.2947039,15.9789374 12.0120699,16.3609358 C12.0753326,16.3946233 12.1395627,16.4268793 12.2048228,16.4577057 C13.3338508,15.8461249 14.6264972,15.5 16,15.5 C17.3727304,15.5 18.6646767,15.8457108 19.7935364,16.4548153 L19.9849889,16.3609358 C20.7023549,15.9789374 21.2622264,15.4214782 21.6457063,14.7075227 C22.0467669,13.9608355 22.2455882,13.0787847 22.2455882,11.9566673 L22.2455882,11.9566673 L22.2455882,11.6550974 C22.2455882,10.5329801 22.0467669,9.65092918 21.6457063,8.90424207 C21.2622264,8.19028655 20.7023549,7.63282735 19.9849889,7.2508289 C19.2343589,6.85111724 18.3475452,6.65294118 17.2196224,6.65294118 L17.2196224,6.65294118 Z M17.5485294,11.1235294 C17.8246718,11.1235294 18.0485294,11.347387 18.0485294,11.6235294 C18.0485294,12.7123619 17.1241639,13.5823529 15.9985294,13.5823529 C14.8728949,13.5823529 13.9485294,12.7123619 13.9485294,11.6235294 C13.9485294,11.347387 14.172387,11.1235294 14.4485294,11.1235294 C14.6939893,11.1235294 14.8981378,11.3004046 14.9404737,11.5336538 L14.9485294,11.6235294 C14.9485294,12.1460689 15.4120812,12.5823529 15.9985294,12.5823529 C16.5430885,12.5823529 16.9816807,12.2061693 17.0415584,11.7340544 L17.0485294,11.6235294 C17.0485294,11.347387 17.272387,11.1235294 17.5485294,11.1235294 Z M11.7132353,10.4382353 C12.5189213,10.4382353 13.1720588,11.0913728 13.1720588,11.8970588 C13.1720588,12.7027448 12.5189213,13.3558824 11.7132353,13.3558824 C10.9075493,13.3558824 10.2544118,12.7027448 10.2544118,11.8970588 C10.2544118,11.0913728 10.9075493,10.4382353 11.7132353,10.4382353 Z M20.2838235,10.4382353 C21.0895095,10.4382353 21.7426471,11.0913728 21.7426471,11.8970588 C21.7426471,12.7027448 21.0895095,13.3558824 20.2838235,13.3558824 C19.4781375,13.3558824 18.825,12.7027448 18.825,11.8970588 C18.825,11.0913728 19.4781375,10.4382353 20.2838235,10.4382353 Z M5.6709304,6.65526351 C5.40291425,6.64254743 5.15248984,6.68192493 4.92820792,6.76937446 C4.65897498,6.8743508 4.42998969,7.04772985 4.25514443,7.27910931 C4.0727877,7.52042899 3.95114067,7.82221662 3.90245539,8.17028917 L3.90245539,8.17028917 L3.84665462,8.56923346 C3.79795822,8.91738556 3.83212213,9.24133285 3.94129848,9.52402554 C4.04601926,9.7951813 4.21879505,10.0255604 4.44907015,10.2012416 C4.68876213,10.3841071 4.98828855,10.5060017 5.33371616,10.5547808 C5.67906316,10.6035486 6.00026322,10.5693492 6.28061557,10.4600374 C6.54984855,10.355061 6.77883384,10.1816819 6.95367907,9.95030246 C7.13603582,9.70898276 7.25768285,9.40719512 7.30636813,9.0591226 L7.30636813,9.0591226 L7.3621689,8.66017831 C7.41086531,8.31202618 7.37670142,7.98807887 7.26752513,7.7053863 C7.16280427,7.43423045 6.99002848,7.20385133 6.75975336,7.02817012 C6.52006145,6.84530468 6.22053507,6.72341011 5.87510737,6.67463095 L5.87510737,6.67463095 Z M27.0591001,6.76580601 C26.7789345,6.65968981 26.4571445,6.62657789 26.1106933,6.67419716 C25.7646023,6.72176693 25.4652797,6.84007735 25.2267186,7.01698211 C24.9990954,7.18577596 24.8292369,7.40622641 24.7266623,7.66525625 C24.6199753,7.93467062 24.5867156,8.24383035 24.6346473,8.57737926 L24.6346473,8.57737926 L24.7123971,9.11842523 C24.7603842,9.452359 24.8797858,9.74129584 25.0589576,9.97239923 C25.2315404,10.1950036 25.45835,10.3621565 25.726194,10.4636058 C26.0063596,10.569722 26.3281496,10.6028339 26.6746008,10.5552146 C27.0206918,10.5076448 27.3200144,10.3893344 27.5585754,10.2124297 C27.7861986,10.0436358 27.9560572,9.82318532 28.0586319,9.56415551 C28.1653189,9.29474113 28.1985786,8.98558144 28.1506467,8.65203242 L28.1506467,8.65203242 L28.0728971,8.11098654 C28.02491,7.77705276 27.9055084,7.48811592 27.7263365,7.25701254 C27.5537538,7.03440827 27.3269442,6.86725529 27.0591001,6.76580601 Z" id="Combined-Shape"></path>
        </g>
    </g>
</svg>