<?xml version="1.0" encoding="UTF-8"?>
<svg width="32px" height="32px" viewBox="0 0 32 32" version="1.1" xmlns="http://www.w3.org/2000/svg" xmlns:xlink="http://www.w3.org/1999/xlink">
    <title>SVG/c_medium_mewconnect</title>
    <g id="Symbols" stroke="none" stroke-width="1" fill="none" fill-rule="evenodd">
        <g id="Color/Medium">
            <path d="M22.2502177,30.4058823 C28.9972766,30.725 29.6775917,24.8258934 27.7011656,21.3906766 C25.7864596,18.0627355 22.9144009,16.9230295 18.2694452,17.3601786 C13.6244896,17.7973277 18.2894166,25.3647523 21.4761599,24.8097943 C22.9219198,24.5580213 21.6673415,30.3783139 22.2502177,30.4058823 Z" id="right-arm" stroke="#000000" fill="#FFFFFF" fill-rule="nonzero"></path>
            <path d="M9.74649876,30.4058823 C2.99943992,30.725 2.31912477,24.8258934 4.29555087,21.3906766 C6.21025675,18.0627354 9.0823156,16.9230295 13.7272712,17.3601786 C18.3722269,17.7973277 13.7072999,25.3647523 10.5205565,24.8097943 C9.07479661,24.5580212 10.329375,30.3783139 9.74649876,30.4058823 Z" id="left-arm" stroke="#000000" fill="#FFFFFF" fill-rule="nonzero"></path>
            <path d="M16.8430821,0.5 C19.1494014,0.5 20.6470935,0.870661821 21.9470591,1.56668724 C23.2470245,2.26271265 24.267245,3.28410167 24.9624742,4.58555605 C25.6502278,5.87301629 26.0199415,7.35419546 26.0279412,9.62117604 L26.0279412,10.9987391 C26.0279412,13.3076998 25.6577034,14.8071072 24.9624742,16.1085616 C24.267245,17.4100159 23.2470245,18.4314049 21.9470591,19.1274304 C20.6470935,19.8234558 19.1494014,20.1941176 16.8430821,20.1941176 L15.1539767,20.1941176 C12.8476574,20.1941176 11.3499654,19.8234558 10.0499998,19.1274304 C8.75003428,18.4314049 7.7298138,17.4100159 7.03458459,16.1085616 C6.33935543,14.8071072 5.96911765,13.3076998 5.96911765,10.9987391 L5.96911765,9.69537856 C5.96911765,7.38641786 6.33935543,5.88701042 7.03458459,4.58555605 C7.7298138,3.28410167 8.75003428,2.26271265 10.0499998,1.56668724 C11.3359872,0.878145969 12.8154718,0.508008841 15.079859,0.5 L16.8430821,0.5 Z" id="helmet" stroke="#000000" fill="#FFFFFF" fill-rule="nonzero"></path>
            <path d="M14.7774364,6.15294118 L17.2196224,6.15294118 C18.4568941,6.15294118 19.4154699,6.38108801 20.2199972,6.80950011 C21.0245245,7.23791209 21.6559223,7.86658945 22.0861882,8.66765033 C22.5164541,9.46871121 22.7455882,10.4231567 22.7455882,11.6550974 L22.7455882,11.9566673 C22.7455882,13.188608 22.5164541,14.1430535 22.0861882,14.9441144 C21.6559223,15.7451753 21.0245245,16.3738526 20.2199972,16.8022646 C19.4154699,17.2306767 18.4568941,17.4588235 17.2196224,17.4588235 L14.7774364,17.4588235 C13.5401647,17.4588235 12.581589,17.2306767 11.7770617,16.8022646 C10.9725343,16.3738526 10.3411365,15.7451753 9.91087059,14.9441144 C9.48060472,14.1430535 9.25147059,13.188608 9.25147059,11.9566673 L9.25147059,11.6550974 C9.25147059,10.4231567 9.48060472,9.46871121 9.91087059,8.66765033 C10.3411365,7.86658945 10.9725343,7.23791209 11.7770617,6.80950011 C12.581589,6.38108801 13.5401647,6.15294118 14.7774364,6.15294118 Z" id="screen" stroke="#000000" fill="#FFFFFF" fill-rule="nonzero"></path>
            <circle id="left-eye" fill="#000000" fill-rule="nonzero" cx="11.7132353" cy="11.8970588" r="1.45882353"></circle>
            <circle id="right-eye" fill="#000000" fill-rule="nonzero" cx="20.2838235" cy="11.8970588" r="1.45882353"></circle>
            <path d="M14.4485294,11.6235294 C14.4485294,12.4292154 15.142488,13.0823529 15.9985294,13.0823529 C16.8545708,13.0823529 17.5485294,12.4292154 17.5485294,11.6235294" id="month" stroke="#000000" stroke-linecap="round"></path>
            <g id="left-ear" transform="translate(3.325000, 6.152941)">
                <path d="M2.62002063,0.0266017651 C3.05604636,0.0881746124 3.43429561,0.245982875 3.73802993,0.477707474 C4.04176424,0.709432082 4.27098358,1.01507303 4.40894958,1.37231119 C4.54691548,1.72954936 4.59362796,2.13838483 4.53234853,2.57649844 L4.47654777,2.97544273 C4.41526835,3.41355634 4.25821211,3.79361679 4.02759182,4.0988055 C3.79697156,4.40399421 3.49278718,4.63431117 3.13725145,4.77293779 C2.78171572,4.91156432 2.37482864,4.95850051 1.93880291,4.89692767 C1.50277719,4.83535483 1.12452792,4.67754651 0.820793612,4.44582196 C0.517059301,4.21409733 0.287839935,3.90845638 0.149874002,3.55121822 C0.0119080682,3.19398006 -0.0348044321,2.78514458 0.0264749893,2.34703097 L0.0822757555,1.94808668 C0.143555177,1.50997307 0.300611395,1.12991262 0.53123169,0.824723908 C0.761851986,0.51953519 1.06603636,0.289218229 1.42157208,0.150591654 C1.77710781,0.0119650877 2.1839949,-0.0349710914 2.62002063,0.0266017651 Z" id="ear" stroke="#000000" fill="#FFFFFF" fill-rule="nonzero"></path>
                <line x1="1.97092787" y1="1.5490233" x2="1.95058169" y2="2.8798254" id="Path-3" stroke="#D8D8D8" stroke-width="1.00294118" stroke-linecap="round" stroke-linejoin="round" transform="translate(1.960755, 2.214424) rotate(8.000000) translate(-1.960755, -2.214424) "></line>
            </g>
            <path d="M26.042609,6.17885431 C25.6078766,6.23860774 25.231169,6.39120804 24.9288952,6.61535889 C24.6266215,6.83950976 24.3987817,7.1352111 24.2617848,7.48116672 C24.1247878,7.82712234 24.0786337,8.22333225 24.1397313,8.64849999 L24.2174811,9.1895459 C24.2785787,9.61471373 24.434612,9.98313314 24.6638054,10.2787564 C24.8929989,10.5743796 25.1953524,10.7972066 25.5490909,10.9311895 C25.9028293,11.0651723 26.3079524,11.1103109 26.742685,11.0505574 C27.1774176,10.990804 27.5541252,10.8382037 27.8563989,10.6140529 C28.1586726,10.389902 28.3865124,10.0942007 28.5235093,9.74824504 C28.6605063,9.40228942 28.7066604,9.00607951 28.6455627,8.58091178 L28.5678131,8.03986586 C28.5067154,7.61469804 28.3506822,7.24627863 28.1214887,6.95065533 C27.8922953,6.65503215 27.5899416,6.43220517 27.2362032,6.29822235 C26.8824648,6.16423953 26.4773416,6.11910087 26.042609,6.17885431 Z" id="Rectangle" stroke="#000000" fill="#FFFFFF" fill-rule="nonzero"></path>
            <line x1="26.7281165" y1="7.70196446" x2="26.7077703" y2="9.03276656" id="Path-3" stroke="#D8D8D8" stroke-width="1.00294118" stroke-linecap="round" stroke-linejoin="round" transform="translate(26.717943, 8.367366) scale(-1, 1) rotate(8.000000) translate(-26.717943, -8.367366) "></line>
            <g id="logo" transform="translate(8.066176, 15.635294)" fill-rule="nonzero">
                <path d="M7.93235296,0 C3.55123942,0 0,3.5515847 0,7.93235294 C0,12.3131212 3.55158536,15.8647059 7.93235296,15.8647059 C12.3131206,15.8647059 15.8647059,12.3131212 15.8647059,7.93235294 C15.8647059,3.5515847 12.313638,0 7.93235296,0 Z" id="Path" fill="#07A6B3"></path>
                <path d="M7.93235296,0 C3.55123942,0 0,3.5515847 0,7.93235294 C0,12.3131212 3.55158536,15.8647059 7.93235296,15.8647059 C12.3131206,15.8647059 15.8647059,12.3131212 15.8647059,7.93235294 C15.8647059,3.5515847 12.313638,0 7.93235296,0 Z" id="Path" stroke="#000000"></path>
                <path d="M3.25821859,6.14170246 L5.41394549,7.05858764 C5.40698065,7.08866223 5.39810034,7.12812628 5.3881744,7.17245794 C5.32367371,7.38243043 5.28571267,7.59962897 5.27517307,7.81900568 C5.27051694,7.86247731 5.26888744,7.90621789 5.27029947,7.94991413 L5.27221495,7.97998873 L5.27221495,7.97998873 C5.28189363,8.78166774 5.65532858,9.53566955 6.28751403,10.0299823 C6.91970247,10.5242922 7.7423604,10.705523 8.52417363,10.522714 L9.74960049,12.6003913 C9.17262725,12.830177 8.55701382,12.9478362 7.93583567,12.947055 C5.23408114,12.947055 2.91764706,10.7601928 2.91764706,8.06187227 C2.91764706,7.42836395 3.03830793,6.69715159 3.25821859,6.14170246 Z M7.93635699,2.91765186 C10.6381115,2.91765186 12.9470588,5.14502324 12.9470588,7.84264924 C12.9465375,8.57038303 12.8525153,9.29637901 12.5667901,9.91684795 L7.09450853,7.6015175 L10.6045087,7.58622013 C10.4784475,6.31503039 9.16996704,5.28166821 7.93601142,5.28166821 C7.65617875,5.28142882 7.37825856,5.32772585 7.11366033,5.41866191 L5.89920508,3.35993497 C6.53836431,3.06754106 7.23330776,2.91666563 7.93635699,2.91765186 Z" id="Combined-Shape" fill="#FFFFFF"></path>
            </g>
            <g id="hand" transform="translate(9.721276, 27.253373) rotate(-1.000000) translate(-9.721276, -27.253373) translate(6.721276, 23.753373)" fill="#FFFFFF" fill-rule="nonzero" stroke="#000000">
                <path d="M0.769181721,4.94722008 L0.20664789,3.27777412 C-0.221588733,2.00688541 0.476625241,0.634489855 1.76615245,0.212442854 L1.79515181,0.20314796 L1.79515181,0.20314796 C3.11076809,-0.209666464 4.51863662,0.496833435 4.95377947,1.78821791 L5.5163133,3.45766387 C5.94454992,4.72855258 5.24633595,6.10094813 3.95680874,6.52299514 L3.92780938,6.53229003 L3.92780938,6.53229003 C2.61219311,6.94510445 1.20432456,6.23860456 0.769181721,4.94722008 Z" id="Rectangle-Copy-3"></path>
                <line x1="3.73480704" y1="2.94040193" x2="3.74902938" y2="1.0259245" id="Line-Copy-2" stroke-width="0.729411765" stroke-linecap="round" transform="translate(3.741918, 1.983163) rotate(-108.000000) translate(-3.741918, -1.983163) "></line>
                <line x1="4.41345034" y1="4.50217222" x2="4.40014018" y2="2.5875048" id="Line-Copy-3" stroke-width="0.729411765" stroke-linecap="round" transform="translate(4.406795, 3.544839) rotate(-108.000000) translate(-4.406795, -3.544839) "></line>
            </g>
            <g id="hand" transform="translate(22.295553, 27.253373) scale(-1, 1) rotate(-1.000000) translate(-22.295553, -27.253373) translate(19.295553, 23.753373)" fill="#FFFFFF" fill-rule="nonzero" stroke="#000000">
                <path d="M0.769181721,4.94722008 L0.20664789,3.27777412 C-0.221588733,2.00688541 0.476625241,0.634489855 1.76615245,0.212442854 L1.79515181,0.20314796 L1.79515181,0.20314796 C3.11076809,-0.209666464 4.51863662,0.496833435 4.95377947,1.78821791 L5.5163133,3.45766387 C5.94454992,4.72855258 5.24633595,6.10094813 3.95680874,6.52299514 L3.92780938,6.53229003 L3.92780938,6.53229003 C2.61219311,6.94510445 1.20432456,6.23860456 0.769181721,4.94722008 Z" id="Rectangle-Copy-3"></path>
                <line x1="3.73480704" y1="2.94040193" x2="3.74902938" y2="1.0259245" id="Line-Copy-2" stroke-width="0.729411765" stroke-linecap="round" transform="translate(3.741918, 1.983163) rotate(-108.000000) translate(-3.741918, -1.983163) "></line>
                <line x1="4.41345034" y1="4.50217222" x2="4.40014018" y2="2.5875048" id="Line-Copy-3" stroke-width="0.729411765" stroke-linecap="round" transform="translate(4.406795, 3.544839) rotate(-108.000000) translate(-4.406795, -3.544839) "></line>
            </g>
        </g>
    </g>
</svg>